<?xml version="1.0" standalone="no"?>
<!DOCTYPE svg PUBLIC "-//W3C//DTD SVG 1.1//EN" "http://www.w3.org/Graphics/SVG/1.1/DTD/svg11.dtd">
<svg width="100%" height="100%" viewBox="0 0 792 612" version="1.1" xmlns="http://www.w3.org/2000/svg" xmlns:xlink="http://www.w3.org/1999/xlink" xml:space="preserve" style="fill-rule:evenodd;clip-rule:evenodd;stroke-linejoin:round;stroke-miterlimit:1.41421;">
    <g>
        <path d="M253.512,151.562C256.514,149.76 258.916,147.359 261.918,145.557C263.119,144.957 264.32,144.356 264.921,143.156L240.903,107.729C236.099,110.731 230.695,114.334 225.892,117.937L249.91,153.964C251.711,153.363 252.311,152.162 253.512,151.562Z" style="fill:white;fill-rule:nonzero;"/>
        <path d="M128.619,219.412L78.1817,198.397L71.5767,214.609L123.215,236.225C125.017,230.821 126.818,224.816 128.619,219.412Z" style="fill:white;fill-rule:nonzero;"/>
        <path d="M218.686,183.986C219.287,182.785 220.488,182.185 221.088,180.984L231.296,170.776L200.673,140.153L190.465,150.361C189.865,151.562 188.664,152.162 188.063,153.363L218.686,183.986Z" style="fill:white;fill-rule:nonzero;"/>
        <path d="M269.124,75.9055C272.126,74.7046 275.128,73.5037 278.731,72.3028C279.932,71.7023 281.133,71.1019 282.334,71.1019L263.119,24.267L246.307,31.4724L265.521,78.3072C266.722,76.5059 267.923,75.9055 269.124,75.9055Z" style="fill:white;fill-rule:nonzero;"/>
        <path d="M179.657,138.952L189.865,128.745L153.838,92.718L140.628,105.327L177.255,141.955C177.856,140.754 178.456,140.153 179.657,138.952Z" style="fill:white;fill-rule:nonzero;"/>
        <path d="M287.738,131.147C288.939,130.546 290.14,129.946 291.34,129.345C294.343,128.144 297.345,126.943 300.347,125.743C301.548,125.142 302.749,124.542 303.95,124.542L287.738,85.5126C282.334,87.3139 276.329,89.7157 270.925,92.1175L287.738,131.147Z" style="fill:white;fill-rule:nonzero;"/>
        <path d="M493.691,77.7068C494.892,78.3072 496.093,78.9077 497.294,79.5081L517.109,30.8719L500.896,23.6665L481.082,72.3028C482.283,72.9032 483.484,73.5037 484.684,73.5037C487.687,74.7046 490.689,75.9055 493.691,77.7068Z" style="fill:white;fill-rule:nonzero;"/>
        <path d="M511.705,156.365L535.722,120.339C534.522,119.738 533.921,118.537 532.72,117.937C529.718,116.135 527.316,113.734 524.314,111.932C523.113,111.332 521.912,110.731 521.312,109.53L497.294,144.957C502.097,149.16 506.901,152.763 511.705,156.365Z" style="fill:white;fill-rule:nonzero;"/>
        <path d="M471.475,131.147C472.675,131.747 473.876,132.347 475.077,132.948L491.289,93.9189C490.088,93.3184 488.888,92.718 487.687,92.1175C484.684,90.9166 481.682,89.1153 478.68,87.9144C476.879,87.3139 475.678,86.7135 474.477,86.7135L458.265,125.743C459.466,126.343 460.667,126.943 461.867,126.943C465.47,128.144 468.472,129.946 471.475,131.147Z" style="fill:white;fill-rule:nonzero;"/>
        <rect x="372.401" y="68.7001" width="18.6139" height="42.0313" style="fill:white;fill-rule:nonzero;"/>
        <path d="M332.771,115.535C336.374,114.935 339.376,114.334 342.979,113.734C344.18,113.734 345.381,113.133 346.582,113.133L338.776,71.7023C337.575,71.7023 336.374,72.3028 335.173,72.3028C331.57,72.9032 328.568,73.5037 324.965,74.1041C323.765,74.1041 322.564,74.7046 321.363,74.7046L329.169,116.135C330.369,116.135 331.57,116.135 332.771,115.535Z" style="fill:white;fill-rule:nonzero;"/>
        <rect x="373.001" y="1.45" width="18.0134" height="51.6385" style="fill:white;fill-rule:nonzero;"/>
        <path d="M430.044,116.736C431.245,117.336 432.446,117.336 433.646,117.937L442.053,76.5059C440.852,75.9055 439.651,75.9055 438.45,75.305C434.847,74.7046 431.845,74.1041 428.242,72.9032C427.041,72.9032 425.841,72.3028 424.64,72.3028L416.233,113.734C417.434,113.734 418.635,114.334 419.836,114.334C423.439,114.935 427.041,116.135 430.044,116.736Z" style="fill:white;fill-rule:nonzero;"/>
        <path d="M164.646,183.385C162.845,186.388 161.043,188.79 159.242,191.792C158.642,192.993 158.041,194.194 157.441,195.394L194.068,220.013C197.07,214.609 200.072,209.805 203.075,204.401L166.447,179.783C166.447,180.984 165.847,182.185 164.646,183.385Z" style="fill:white;fill-rule:nonzero;"/>
        <path d="M274.528,541.252C273.927,541.252 273.327,540.652 272.727,540.652L265.521,537.049L246.307,582.683L263.119,589.288L281.733,543.654C280.532,543.053 279.331,543.053 278.131,542.453C276.93,541.852 275.729,541.852 274.528,541.252Z" style="fill:white;fill-rule:nonzero;"/>
        <path d="M595.767,428.368C596.368,427.167 596.968,425.966 597.568,424.765C598.169,424.165 598.169,423.564 598.769,422.964L602.372,415.759L596.968,412.156L565.745,391.14C563.343,396.544 560.341,401.948 556.738,406.752L572.35,417.56L593.365,431.37C594.566,430.77 595.167,429.569 595.767,428.368Z" style="fill:white;fill-rule:nonzero;"/>
        <path d="M509.303,460.192C506.301,461.993 503.899,464.395 500.896,466.196C499.696,466.797 498.495,467.397 497.894,468.598L521.912,504.024C523.113,503.424 524.314,502.823 524.914,501.623C527.917,499.821 530.318,498.02 533.321,495.618C534.522,495.018 535.122,493.817 536.323,493.216L512.305,457.189C511.104,458.39 509.903,459.591 509.303,460.192Z" style="fill:white;fill-rule:nonzero;"/>
        <path d="M494.292,537.049C491.289,538.25 488.287,539.451 485.285,541.252C484.084,541.852 482.883,542.453 481.682,542.453L500.896,589.288L517.709,582.683L497.894,535.248C496.693,535.848 495.492,536.448 494.292,537.049Z" style="fill:white;fill-rule:nonzero;"/>
        <path d="M542.928,427.768C539.325,432.571 535.122,436.774 530.919,440.977L561.542,471.6C562.743,470.399 563.343,469.799 564.544,468.598C566.946,466.196 569.347,463.794 571.149,461.393C571.749,460.192 572.95,459.591 573.551,458.39L542.928,427.768Z" style="fill:white;fill-rule:nonzero;"/>
        <path d="M491.89,520.837L475.678,481.808C474.477,482.408 473.276,483.009 472.075,483.609C469.073,484.81 466.071,486.611 463.068,487.812C461.867,488.413 460.667,489.013 459.466,489.013L475.678,528.042C476.879,527.442 478.079,526.841 479.28,526.841C482.283,525.64 485.285,524.44 488.287,522.638C489.488,522.038 490.689,521.437 491.89,520.837Z" style="fill:white;fill-rule:nonzero;"/>
        <path d="M379.606,561.667L372.401,561.667L372.401,610.904L390.414,610.904L390.414,561.067C389.213,561.067 388.012,561.067 386.211,561.067C384.41,561.667 382.008,561.667 379.606,561.667Z" style="fill:white;fill-rule:nonzero;"/>
        <path d="M296.744,487.212C296.144,487.212 295.544,486.611 294.943,486.611L287.738,483.009L270.925,522.038C276.329,524.44 281.733,526.841 287.738,528.643L303.95,489.614C302.749,489.013 301.548,488.413 300.347,488.413C299.146,488.413 297.945,487.812 296.744,487.212Z" style="fill:white;fill-rule:nonzero;"/>
        <path d="M339.376,500.422C338.776,500.422 337.575,499.821 336.974,499.821C335.774,499.821 334.573,499.221 333.372,499.221C332.171,499.221 330.97,498.62 329.769,498.02L320.762,539.451C326.767,540.652 332.771,541.852 338.776,543.053L347.182,501.623C345.981,501.623 344.78,501.022 343.579,501.022C341.778,500.422 340.577,500.422 339.376,500.422Z" style="fill:white;fill-rule:nonzero;"/>
        <path d="M430.644,498.02C427.041,498.62 424.039,499.821 420.437,500.422C419.236,500.422 418.035,501.022 416.834,501.022L425.24,542.453C431.245,541.252 437.249,540.051 443.254,538.85L434.847,497.419C433.046,497.419 431.845,497.419 430.644,498.02Z" style="fill:white;fill-rule:nonzero;"/>
        <rect x="372.401" y="504.024" width="18.0134" height="42.0313" style="fill:white;fill-rule:nonzero;"/>
        <path d="M626.99,103.526L614.381,90.3162L572.35,131.747C576.553,135.95 580.756,140.153 584.359,144.957L626.99,103.526Z" style="fill:white;fill-rule:nonzero;"/>
        <path d="M264.921,470.399C263.72,469.799 262.519,469.198 261.918,467.997C258.916,466.196 255.914,463.794 253.512,461.993C252.311,461.393 251.711,460.192 250.51,459.591L230.095,490.814L227.093,495.618C231.896,499.221 236.7,502.223 242.104,505.826L255.314,486.011L264.921,470.399Z" style="fill:white;fill-rule:nonzero;"/>
        <path d="M639.6,376.129L638.399,379.732C637.198,382.734 635.997,385.136 634.796,388.138L632.995,392.942L652.209,400.747L685.834,414.558L692.439,398.346L683.432,394.743L639.6,376.129Z" style="fill:white;fill-rule:nonzero;"/>
        <path d="M178.456,474.602C177.856,473.401 176.655,472.801 176.055,471.6L138.226,508.227L151.436,521.437L168.249,505.225L188.664,485.41C187.463,484.21 186.863,483.609 185.662,482.408C183.26,479.406 180.858,477.004 178.456,474.602Z" style="fill:white;fill-rule:nonzero;"/>
        <g>
            <path d="M101.599,410.955L101.599,337.7C101.599,329.294 102.2,320.287 101.599,311.881C101.599,308.279 100.398,306.477 97.9964,306.477C97.396,306.477 96.1951,306.477 94.9942,307.078C94.3937,307.078 92.5924,307.678 92.5924,307.678C91.9919,307.678 88.9897,308.279 88.3893,308.879C87.7888,308.879 81.1839,310.68 81.1839,316.685L81.1839,419.962C81.1839,422.964 81.1839,425.366 81.7843,427.167C82.9852,429.569 84.7866,430.77 87.1884,430.77C87.7888,430.77 88.9897,430.77 90.1906,430.169C101.599,427.768 101.599,424.765 101.599,414.558L101.599,410.955Z" style="fill:white;fill-rule:nonzero;"/>
            <path d="M285.936,365.321C284.735,365.321 283.535,365.321 282.934,365.921C281.733,365.921 259.517,370.125 257.715,370.725C255.314,371.325 253.512,371.926 251.11,372.526C248.108,373.127 245.706,373.727 243.905,373.727L243.305,373.727C242.704,372.526 242.704,371.325 242.704,370.125C242.704,369.524 242.704,368.323 242.704,367.723C242.704,357.515 243.305,347.308 243.305,337.7C248.108,335.899 264.921,332.897 266.722,332.296C267.323,332.296 279.331,330.495 282.934,328.694C285.336,328.093 285.936,325.691 285.936,323.89L285.936,317.886C285.936,313.683 285.936,311.281 284.735,309.479C283.535,308.279 282.334,308.279 281.733,308.279C280.532,308.279 279.331,308.279 278.131,308.879C277.53,308.879 272.126,309.479 271.526,310.08C270.925,310.08 267.323,311.281 266.122,311.281C264.921,311.281 263.119,311.881 261.918,311.881C261.318,311.881 255.314,313.082 254.713,313.683L242.704,316.084C242.704,310.08 242.704,303.475 243.305,297.47C243.905,297.47 273.327,290.265 274.528,289.665C276.329,289.064 281.133,287.863 282.334,287.863C285.936,287.263 290.74,286.662 290.74,279.457L290.74,278.256C290.74,272.252 290.74,269.85 288.939,268.049C287.137,266.247 284.735,266.848 279.331,268.049L276.93,268.649C275.729,268.649 260.117,272.252 257.715,272.852C254.713,272.852 227.693,278.857 226.492,279.457C224.691,280.057 222.889,281.859 222.289,284.861L222.289,301.073C222.289,302.874 221.689,389.339 221.689,390.54C221.689,393.542 221.689,395.343 222.889,396.544C223.49,397.145 225.291,397.745 226.492,398.346C227.693,398.346 228.894,398.346 230.695,398.346C230.695,398.346 261.318,391.741 261.918,391.741C262.519,391.14 282.934,387.538 284.135,387.538C291.941,385.136 291.941,384.535 291.941,373.727C292.541,367.122 290.74,364.721 285.936,365.321Z" style="fill:white;fill-rule:nonzero;"/>
            <path d="M376.604,345.506L376.003,343.104C375.403,341.303 374.803,339.502 374.202,337.7C371.8,329.895 361.593,292.066 360.992,290.866C359.791,286.062 358.59,280.658 356.789,275.254C355.588,269.85 354.387,265.046 352.586,259.642L352.586,259.042C351.986,256.04 350.785,253.638 347.782,253.638C347.182,253.638 345.981,253.638 344.78,254.238L342.979,254.238C338.175,255.439 336.974,258.441 336.374,262.645C335.774,265.647 335.173,268.649 333.972,271.651C333.372,272.852 325.566,308.879 324.365,311.881C321.963,320.888 310.555,372.526 310.555,374.928C310.555,376.129 311.155,377.33 312.957,377.93C313.557,378.531 314.758,378.531 316.559,378.531C319.561,378.531 323.765,377.33 326.166,377.33C330.97,376.129 331.57,370.125 332.171,364.721C332.171,363.52 332.771,361.118 332.771,360.517C333.972,360.517 356.189,354.513 356.789,354.513C358.59,353.913 359.191,355.714 360.392,359.917C360.992,363.52 361.593,368.323 366.396,368.323L369.399,368.323C369.999,368.323 371.2,368.323 371.8,367.723C376.604,366.522 382.008,364.721 382.008,361.118C382.008,357.515 380.207,353.913 379.006,350.31C377.204,348.508 376.604,346.707 376.604,345.506ZM338.175,337.7C338.175,337.1 338.175,337.1 338.175,336.5C338.776,333.497 342.979,311.881 344.18,307.078C345.981,313.082 351.385,333.497 351.986,334.698C351.385,335.299 350.785,335.299 350.184,335.299C346.582,336.5 342.378,337.1 338.175,337.7Z" style="fill:white;fill-rule:nonzero;"/>
            <path d="M200.673,337.7C200.673,325.091 192.267,310.68 184.461,304.676C179.657,301.073 172.452,296.87 163.445,296.27L155.039,296.27C151.436,296.27 134.023,299.872 132.822,299.872C129.22,300.473 123.816,301.073 123.816,308.879L123.816,394.743C123.816,400.147 123.816,406.151 123.215,411.555L123.215,415.158C123.215,419.361 126.217,420.562 128.019,420.562L128.619,420.562C131.621,420.562 138.226,419.361 143.03,418.16C144.231,418.16 150.235,416.359 150.836,415.759C152.637,415.158 153.838,414.558 155.039,413.957C155.639,413.357 156.84,413.357 157.441,412.756C171.851,406.752 177.856,398.946 186.262,388.738C187.463,386.937 189.264,385.136 190.465,383.334C191.666,382.134 192.867,380.332 193.468,379.131C194.068,377.93 194.668,376.729 195.269,375.529C195.869,373.727 200.673,355.113 200.673,349.109L200.673,337.7ZM144.231,329.895C144.231,326.892 144.831,323.89 144.831,320.888C144.831,320.287 144.831,319.687 144.831,319.687L146.032,319.087C147.233,318.486 148.434,318.486 150.235,317.886C152.037,317.285 153.838,317.285 155.639,317.285C163.445,317.285 170.05,321.488 176.655,329.895C177.856,331.096 181.459,341.303 181.459,344.305L181.459,349.709C181.459,358.116 179.057,365.321 173.653,374.328C172.452,376.129 167.048,381.533 163.445,384.535C162.845,385.136 162.244,385.736 161.644,386.337C156.84,390.54 152.037,392.942 148.434,393.542C147.834,393.542 146.633,394.142 145.432,394.142C144.831,394.142 144.231,394.142 144.231,394.142C144.231,392.341 143.63,390.54 143.63,389.339C144.231,383.935 144.231,334.698 144.231,329.895Z" style="fill:white;fill-rule:nonzero;"/>
            <path d="M450.459,232.622C448.057,232.622 394.017,244.631 385.01,246.432L384.41,247.033C383.209,247.633 382.008,248.234 382.008,249.435C380.807,252.437 380.807,262.645 380.807,262.645C380.807,265.046 380.807,267.448 382.008,269.249C383.209,270.45 384.41,270.45 386.211,270.45C388.012,269.85 404.224,266.247 407.227,265.647C407.227,270.45 407.227,275.254 407.227,279.457C407.227,283.06 407.827,298.671 407.827,302.274L407.827,348.508C407.827,352.712 407.827,355.714 409.028,357.515C410.229,358.716 411.43,359.317 413.231,359.317C414.432,359.317 416.233,359.317 418.635,358.716C421.637,358.116 427.642,356.915 427.642,349.109L427.642,290.866C427.642,289.064 428.242,264.446 427.642,261.444C427.642,259.042 428.242,258.441 430.044,258.441C431.845,257.841 443.254,256.64 443.854,256.04C448.057,255.439 452.861,254.839 452.861,245.832C452.861,245.232 452.861,241.629 452.861,240.428C455.262,238.026 455.262,233.223 450.459,232.622Z" style="fill:white;fill-rule:nonzero;"/>
            <path d="M566.345,249.435L565.745,247.033C559.74,227.819 545.33,216.41 526.716,216.41C523.113,216.41 519.51,217.011 515.908,217.611C511.705,218.211 506.301,220.013 502.698,221.814C499.095,224.216 488.888,230.821 485.285,235.024C484.684,235.624 482.883,238.026 482.283,239.227C481.082,241.028 469.073,254.839 467.271,263.245C467.271,263.845 464.87,270.45 464.269,271.651C463.669,274.653 461.867,285.462 461.867,289.064C461.867,304.075 464.269,307.678 464.269,308.879C464.269,310.68 467.271,316.685 468.472,318.486C468.472,318.486 470.274,321.488 470.874,322.689C473.876,328.093 491.89,337.7 494.892,338.301C496.093,338.301 505.1,340.703 518.309,338.301C529.117,335.899 542.928,326.892 551.934,316.084C552.535,315.484 553.135,314.883 553.135,314.283C553.736,313.082 554.336,312.482 554.937,311.881C556.738,310.68 560.941,302.274 561.542,300.473C562.142,299.872 562.142,298.671 562.743,298.071C563.343,296.27 563.943,294.468 565.144,292.667C567.546,287.263 569.347,279.457 569.347,272.852C569.347,272.252 569.948,269.85 569.948,269.249C569.347,267.448 568.147,254.238 566.345,249.435ZM534.522,303.475C533.921,304.075 533.321,304.676 532.72,305.276C532.12,305.877 531.519,305.877 531.519,306.477L530.919,307.078C530.318,307.678 529.117,308.879 529.117,308.879C524.914,311.281 520.111,313.683 515.908,314.883C514.106,315.484 511.104,315.484 507.501,315.484C503.298,315.484 500.296,314.883 498.495,313.683C497.894,313.082 497.294,312.482 496.093,311.881C495.492,311.881 495.492,311.281 494.892,310.68C494.292,310.08 493.691,309.479 493.091,309.479C487.687,305.276 483.484,295.069 483.484,286.662C483.484,286.062 483.484,277.656 484.084,276.455L484.084,275.854C487.086,265.647 488.888,262.044 495.492,254.238C496.693,253.037 497.894,251.836 499.095,250.636C500.296,250.035 500.896,248.834 502.097,248.234C505.1,245.232 508.702,243.43 512.305,242.229C512.905,242.229 514.106,241.629 514.707,241.629C515.307,241.629 515.908,241.028 516.508,241.028C518.91,240.428 521.912,240.428 524.314,240.428C535.722,240.428 543.528,247.033 546.53,259.042C547.131,260.843 548.332,266.848 548.332,270.45C548.332,271.051 548.332,272.252 548.332,273.453C548.332,274.653 547.731,275.854 547.731,277.055C547.731,284.861 543.528,292.066 539.325,298.671L537.524,301.674C536.323,301.674 535.722,302.874 534.522,303.475Z" style="fill:white;fill-rule:nonzero;"/>
            <path d="M649.207,270.45C648.606,269.85 648.606,269.85 648.006,269.249L648.606,268.649C649.807,267.448 650.408,266.848 651.609,266.247C654.011,264.446 660.615,253.638 660.615,253.638C665.419,246.432 666.62,233.823 666.62,227.819C666.62,211.607 661.816,201.399 651.609,195.995C651.008,195.995 646.205,192.392 640.801,192.392C640.2,192.392 632.394,191.792 617.984,195.394C617.984,195.394 597.568,199.598 595.767,200.198C590.964,200.798 590.964,208.004 590.964,212.207L590.964,313.683C590.964,318.486 591.564,320.287 596.968,319.687C598.769,319.687 600.571,319.087 601.772,319.087L606.575,317.886C611.979,317.285 611.379,314.883 611.379,311.281C611.979,304.075 611.379,296.87 611.379,289.665L611.379,284.861L611.379,284.261L611.379,283.66C614.381,283.06 622.187,281.258 623.388,280.658C624.589,280.658 625.189,280.057 626.39,280.057C626.39,280.057 626.99,280.057 627.591,280.658C629.392,282.459 634.196,287.263 643.202,300.473C643.803,301.674 644.403,302.274 645.004,302.874C646.805,305.276 648.006,308.279 653.41,307.078C657.013,305.877 667.821,303.475 667.821,303.475C669.622,302.874 669.622,301.073 668.421,298.671C667.22,295.669 663.618,288.464 653.41,275.254C652.209,274.053 651.008,272.252 649.207,270.45ZM614.981,265.046C614.381,265.046 613.781,265.647 613.18,265.647C612.58,262.645 613.18,241.028 612.58,235.024C612.58,229.019 611.979,223.015 611.979,217.011C613.781,216.41 617.984,215.209 618.584,215.209C619.785,215.209 628.792,214.008 631.794,214.008C635.997,214.609 641.401,215.81 643.202,221.814C643.202,222.415 643.803,223.015 643.803,223.615C644.403,224.816 645.004,226.017 645.004,227.218C645.004,229.62 645.004,232.022 645.004,234.424C645.004,241.028 642.602,245.832 638.999,252.437C638.399,253.037 635.397,256.04 634.196,257.241L632.995,258.441C631.194,260.243 628.792,261.444 626.99,262.044C625.789,262.645 624.589,262.645 623.388,263.245C622.187,263.845 620.385,264.446 618.584,264.446C617.383,263.845 616.182,264.446 614.981,265.046Z" style="fill:white;fill-rule:nonzero;"/>
        </g>
        <path d="M724.863,117.937C724.863,117.937 615.582,140.754 578.955,148.56L572.95,149.76L569.347,150.961L568.747,149.76L560.941,141.955L547.731,155.164L507.501,163.571L500.296,165.372L499.095,165.973C496.693,164.171 494.292,162.37 491.89,160.569C490.689,159.968 489.488,159.368 488.888,158.167L481.682,168.975L458.265,173.778L469.673,146.758C468.472,146.158 467.271,145.557 466.071,144.957C463.068,143.756 460.066,141.955 457.064,140.754C455.863,140.153 454.662,139.553 453.461,139.553L437.249,178.582L421.037,182.785L430.644,133.548C429.443,132.948 428.242,132.948 427.041,132.347C424.039,131.747 420.437,130.546 417.434,129.946C416.233,129.946 415.033,129.345 413.832,129.345L402.423,186.988L391.015,188.79L391.015,126.943C387.412,126.943 383.209,126.343 379.606,126.343C377.204,126.343 375.403,126.343 373.001,126.343L373.001,192.993L363.394,194.794L350.184,128.745C344.18,129.345 338.175,130.546 332.771,132.347L345.981,198.997L336.374,200.798L310.555,138.952C305.151,140.754 299.146,143.156 293.742,146.158L318.361,205.002L307.552,206.803L273.927,156.365C272.727,156.966 271.526,157.566 270.325,158.767C267.323,160.569 264.921,162.37 261.918,164.772C260.718,165.372 260.117,166.573 258.916,167.173L288.338,211.006L273.927,214.008L241.503,182.185C240.302,183.385 239.702,183.986 238.501,185.187C236.099,187.589 233.697,189.99 231.896,192.392C231.296,193.593 230.095,194.194 229.494,195.394L252.912,218.812L231.296,223.615L216.885,212.807C216.285,214.008 215.684,215.209 214.483,216.41C212.682,219.412 210.88,222.415 209.68,225.417C209.079,226.017 209.079,226.618 208.479,227.819L207.878,228.419L207.278,228.419L169.45,236.225L143.63,225.417C143.03,226.618 142.43,227.819 142.43,229.019C141.829,230.22 141.229,231.421 141.229,232.622C141.229,233.223 140.628,233.823 140.628,234.424C140.028,235.624 140.028,236.825 139.427,238.026C138.827,239.227 138.827,240.428 138.226,241.629L139.427,242.229L23.541,268.049L23.541,496.218L39.753,492.616L186.863,461.393L188.664,460.792C192.267,464.995 196.47,469.198 200.673,472.801L219.287,453.587L258.316,445.18L260.117,444.58L258.916,446.982C263.72,450.584 268.523,454.187 273.327,457.189L284.735,440.977L307.552,436.174L293.742,469.198C298.546,471.6 302.749,473.401 307.552,475.203C308.753,475.803 309.354,475.803 310.555,476.404L311.155,474.602L328.568,431.971L342.979,428.968L334.573,469.799L331.57,483.609C337.575,484.81 342.979,486.011 348.983,487.212L353.186,466.196L360.992,425.366L371.8,422.964L371.8,489.614C374.202,489.614 376.003,489.614 378.405,489.614C382.008,489.614 386.211,489.614 389.814,489.013L389.814,457.79L389.814,418.761L398.82,416.959L406.026,454.187L412.631,486.011C418.635,484.81 424.64,483.609 430.044,482.408L423.439,450.584L416.233,413.357L425.24,411.555L440.251,447.582L451.66,475.803C452.861,475.203 454.062,474.602 455.262,474.002C458.265,472.801 461.267,471.6 464.269,469.799C465.47,469.198 466.671,468.598 467.872,467.997L458.865,442.178L443.854,406.151L454.062,403.75L476.879,437.975L488.287,455.388C489.488,454.788 490.689,454.187 491.289,452.986C493.691,451.185 496.693,449.384 499.095,446.982C500.296,446.381 500.896,445.18 502.097,444.58L494.892,433.772L472.075,399.546L485.885,396.544L518.309,428.368L518.91,428.968L519.51,428.368C520.111,427.768 520.711,426.567 521.912,425.966C523.113,424.765 523.713,423.564 524.914,422.964C525.515,422.363 525.515,422.363 526.115,421.763C526.716,420.562 527.917,419.962 528.517,418.761C529.117,417.56 530.318,416.959 530.919,415.759L508.102,392.942L529.117,388.738L544.129,398.946L547.731,391.741C548.332,391.14 548.332,390.54 548.932,389.939C549.533,388.738 550.133,387.538 550.734,386.337C550.734,385.736 551.334,385.136 551.334,384.535C552.535,383.334 551.934,383.935 553.135,383.334L589.162,375.529L615.582,386.337C616.182,385.136 616.182,383.935 616.783,382.734C617.383,381.533 617.383,380.332 617.984,379.131C617.984,378.531 618.584,377.93 618.584,376.729C619.185,375.529 619.185,374.328 619.785,373.127C620.385,371.926 620.385,370.725 620.986,369.524L619.785,368.924L706.85,350.31L723.062,346.707L723.062,272.252L723.062,209.205L724.863,117.937ZM43.3557,419.361L43.3557,415.158L43.3557,356.314L43.3557,283.66L704.448,141.955L704.448,330.495L43.3557,472.201L43.3557,419.361Z" style="fill:white;fill-rule:nonzero;"/>
    </g>
    <g>
        <path d="M595.167,552.661C589.763,552.661 584.959,552.06 580.156,552.06C578.955,552.06 578.354,552.06 577.754,550.859C577.754,549.658 577.153,537.049 577.153,534.647L577.153,525.04C577.153,522.638 577.754,519.636 577.754,517.234C577.754,516.634 577.754,516.033 577.153,515.433C576.553,513.631 577.153,511.23 577.153,509.428L577.153,486.611C577.153,486.011 577.754,484.81 578.955,484.81C580.756,484.81 583.158,484.81 584.959,484.21C587.961,483.609 591.564,484.21 594.566,484.21C598.769,484.21 602.973,484.81 606.575,484.81C611.379,484.81 615.582,488.413 618.584,491.415C619.185,492.015 621.586,498.62 621.586,500.422C621.586,501.623 621.586,503.424 621.586,504.625C621.586,508.828 618.584,511.83 615.582,514.232L614.381,514.832C620.986,519.035 624.589,523.239 624.589,531.044C623.988,550.259 610.778,552.661 595.167,552.661ZM608.377,497.419C605.975,494.417 600.571,493.817 596.968,493.817C594.566,493.817 592.765,494.417 590.363,494.417C587.961,494.417 587.961,493.817 587.961,496.218C587.961,497.419 587.961,498.62 587.961,499.821C587.961,503.424 588.562,506.426 588.562,510.029C588.562,511.23 589.162,511.23 590.363,511.23C595.167,511.23 599.97,510.629 604.173,510.629C605.975,510.629 610.778,505.225 610.778,502.223C610.178,499.821 609.577,498.62 608.377,497.419ZM610.178,524.44C609.577,523.239 608.377,522.038 607.176,521.437C604.774,520.236 601.772,519.636 598.769,519.636C597.568,519.636 596.368,519.636 595.767,519.636C594.566,519.636 593.365,520.236 592.164,520.236C587.361,520.236 587.961,520.236 587.961,525.64C587.961,528.042 587.961,530.444 587.961,532.846C587.961,535.248 587.961,540.652 588.562,543.053C591.564,543.053 593.966,543.053 596.968,543.053C597.568,543.053 598.769,543.053 599.37,542.453C604.774,541.852 608.377,541.852 611.379,535.848C611.979,534.047 612.58,532.846 612.58,530.444C612.58,528.643 611.979,526.241 610.178,524.44Z" style="fill:white;fill-rule:nonzero;"/>
        <path d="M676.227,552.06C674.426,552.06 672.624,552.06 670.823,552.661C669.022,552.661 667.22,552.661 665.419,552.661C664.218,552.661 663.618,553.261 662.417,553.261C661.216,553.261 660.015,553.261 658.214,553.261L655.211,553.261C653.41,553.261 651.609,553.261 650.408,552.661C649.807,552.661 648.606,552.06 648.006,552.06C647.406,552.06 646.805,552.661 646.205,552.661L643.202,552.661C637.798,552.661 638.399,552.06 638.399,547.256C638.399,545.455 637.798,543.053 637.798,541.252C637.798,531.645 637.798,522.038 637.798,511.83C637.798,511.23 638.399,510.029 638.399,509.428L638.399,496.218C638.399,493.817 637.798,491.415 637.798,489.013C637.798,488.413 637.798,487.812 637.798,486.611C637.798,485.41 638.399,485.41 639.6,485.41C642.602,485.41 645.604,485.41 648.606,484.81C651.008,484.21 653.41,484.81 655.211,484.81C658.814,484.81 663.017,484.81 666.62,484.81C667.821,484.81 669.622,485.41 670.823,485.41C672.024,485.41 672.624,484.81 673.825,484.81C682.232,484.81 681.631,484.21 681.631,491.415C681.631,495.618 678.629,494.417 675.026,494.417C672.624,494.417 670.223,495.018 668.421,495.018C666.62,495.018 664.218,494.417 662.417,494.417C660.015,494.417 658.214,495.018 655.812,495.018L650.408,495.018C649.807,495.018 649.207,495.618 649.207,496.218L649.207,508.227L658.214,508.227C658.814,508.227 660.015,508.828 660.615,508.828C661.216,508.828 662.417,508.227 663.017,508.227C664.819,508.227 666.62,508.227 668.421,508.227C669.622,508.227 670.223,507.627 671.423,507.627C672.624,507.627 673.225,508.227 674.426,508.227C678.629,508.227 678.629,508.828 678.629,513.031L678.629,516.634C678.629,517.234 678.629,517.835 677.428,517.835C675.026,518.435 672.024,518.435 669.622,518.435C668.421,518.435 667.821,517.835 666.62,517.835C664.218,517.835 661.816,517.234 659.415,517.234C656.412,517.234 652.81,517.835 649.207,517.835C649.207,524.44 648.606,531.044 648.606,537.649C648.606,538.85 648.606,539.451 649.207,540.652C649.207,541.852 655.211,541.852 656.412,541.852L672.024,541.852C673.825,541.852 675.026,542.453 676.828,542.453C678.028,542.453 679.229,542.453 681.031,542.453C683.432,542.453 684.033,544.855 684.033,546.656C683.432,553.861 681.631,552.06 676.227,552.06Z" style="fill:white;fill-rule:nonzero;"/>
        <path d="M743.477,490.814C743.477,495.618 740.475,494.417 736.272,494.417C733.87,494.417 730.868,493.817 728.466,493.817C727.265,493.817 725.464,493.817 725.464,495.018L725.464,503.424C725.464,504.625 724.863,506.426 724.863,507.627L724.863,548.457C724.863,551.46 722.461,552.06 720.06,552.06C712.254,552.06 714.055,550.259 714.055,544.254L714.055,511.83C714.055,506.426 713.455,501.623 713.455,496.218C713.455,495.618 712.854,495.618 712.254,495.618C709.852,495.618 707.45,495.618 705.049,495.618C702.647,495.618 699.645,496.218 697.243,496.218C694.841,496.218 694.841,493.817 694.841,492.015C694.841,490.214 694.841,487.212 695.441,485.41C695.441,484.81 696.042,484.81 696.642,484.81L739.874,484.81C742.877,484.81 742.877,486.011 742.877,488.413C743.477,489.013 743.477,490.214 743.477,490.814Z" style="fill:white;fill-rule:nonzero;"/>
        <path d="M783.107,552.661C782.506,552.661 781.305,552.661 780.104,552.661C775.301,552.661 778.904,543.053 772.899,543.053C771.698,543.053 770.497,543.053 769.296,543.053C766.895,543.053 764.493,543.654 762.091,543.654L756.087,543.654C754.285,543.654 755.486,552.661 751.883,552.661C750.082,552.661 742.877,552.661 742.877,550.859C742.877,548.457 744.078,546.056 744.678,544.254C744.678,540.652 747.08,535.848 748.281,532.245C750.082,525.04 752.484,517.234 754.886,510.029C756.087,505.225 757.287,499.821 759.089,495.018C759.689,492.616 760.89,490.214 761.491,487.212C762.091,484.81 762.691,484.21 765.093,484.21L766.294,484.21C769.296,484.21 769.296,484.81 770.497,487.812C772.299,494.417 774.1,501.022 775.901,507.627C776.502,510.029 777.703,511.83 777.703,514.232C778.303,517.234 780.104,519.035 780.705,522.038C781.305,528.643 784.308,537.049 786.709,543.053C787.31,545.455 789.712,549.658 789.712,552.06C789.111,552.661 784.308,552.661 783.107,552.661ZM770.497,526.841C769.296,521.437 767.495,516.033 766.294,511.23C764.493,513.031 762.691,521.437 762.691,524.44C762.691,525.04 762.691,525.64 762.691,525.64C762.091,528.042 761.491,530.444 760.29,532.846C763.892,532.846 767.495,532.846 770.497,532.846C771.698,532.846 772.299,532.846 772.899,532.245C771.698,531.044 771.098,528.643 770.497,526.841Z" style="fill:white;fill-rule:nonzero;"/>
    </g>
</svg>
